<svg xmlns="http://www.w3.org/2000/svg" width="1200" height="760" viewBox="0 0 1200 760">
<style>text{font-family:Arial,sans-serif;fill:#0f172a}.title{font-size:38px;font-weight:700}.h{font-size:22px;font-weight:700}.t{font-size:16px}.b{fill:#eff6ff;stroke:#2563eb;stroke-width:2}.g{fill:#ecfdf5;stroke:#059669;stroke-width:2}.l{stroke:#2563eb;stroke-width:3;fill:none;marker-end:url(#a)}</style>
<defs><marker id="a" markerWidth="10" markerHeight="10" refX="8" refY="5" orient="auto"><path d="M1 1 L9 5 L1 9 Z" fill="#2563eb"/></marker></defs>
<rect width="1200" height="760" fill="white"/>
<text x="600" y="55" text-anchor="middle" class="title">Repository Navigation Map</text>
<rect x="430" y="90" width="340" height="80" rx="14" class="b"/><text x="600" y="125" text-anchor="middle" class="h">README and Overview</text><text x="600" y="150" text-anchor="middle" class="t">Start with purpose, map and layers</text>
<path d="M600 170 V220" class="l"/><path d="M600 220 H180 V260" class="l"/><path d="M600 220 H460 V260" class="l"/><path d="M600 220 H740 V260" class="l"/><path d="M600 220 H1020 V260" class="l"/>
<g transform="translate(60,260)"><rect width="240" height="60" rx="12" class="b"/><text x="20" y="36" class="h">1 Foundations</text><rect y="80" width="240" height="45" rx="10" class="g"/><text x="18" y="108" class="t">Why layered AI?</text><rect y="135" width="240" height="45" rx="10" class="g"/><text x="18" y="163" class="t">AI and software</text><rect y="190" width="240" height="45" rx="10" class="g"/><text x="18" y="218" class="t">AI and OSI</text></g>
<g transform="translate(340,260)"><rect width="240" height="60" rx="12" class="b"/><text x="20" y="36" class="h">2 Layers</text><rect y="80" width="240" height="45" rx="10" class="g"/><text x="18" y="108" class="t">Physical and chips</text><rect y="135" width="240" height="45" rx="10" class="g"/><text x="18" y="163" class="t">Data and models</text><rect y="190" width="240" height="45" rx="10" class="g"/><text x="18" y="218" class="t">Agents and apps</text></g>
<g transform="translate(620,260)"><rect width="240" height="60" rx="12" class="b"/><text x="20" y="36" class="h">3 Decisions</text><rect y="80" width="240" height="45" rx="10" class="g"/><text x="18" y="108" class="t">Cloud or on-premise</text><rect y="135" width="240" height="45" rx="10" class="g"/><text x="18" y="163" class="t">LLM or SLM</text><rect y="190" width="240" height="45" rx="10" class="g"/><text x="18" y="218" class="t">Cost and quality</text></g>
<g transform="translate(900,260)"><rect width="240" height="60" rx="12" class="b"/><text x="20" y="36" class="h">4 Resources</text><rect y="80" width="240" height="45" rx="10" class="g"/><text x="18" y="108" class="t">Diagrams</text><rect y="135" width="240" height="45" rx="10" class="g"/><text x="18" y="163" class="t">Python examples</text><rect y="190" width="240" height="45" rx="10" class="g"/><text x="18" y="218" class="t">Case studies</text></g>
<path d="M180 500 V590 H600" class="l"/><path d="M460 500 V590 H600" class="l"/><path d="M740 500 V590 H600" class="l"/><path d="M1020 500 V590 H600" class="l"/>
<rect x="380" y="610" width="440" height="80" rx="14" class="b"/><text x="600" y="645" text-anchor="middle" class="h">Design an AI System</text><text x="600" y="670" text-anchor="middle" class="t">Use the stack to choose the right layer and trade-off</text>
</svg>