<svg xmlns="http://www.w3.org/2000/svg" width="1000" height="850" viewBox="0 0 1000 850"><style>text{font-family:Arial;fill:#0f172a}.title{font-size:34px;font-weight:700}.h{font-size:20px;font-weight:700}.t{font-size:15px}.b{fill:#eff6ff;stroke:#2563eb;stroke-width:2}.g{fill:#ecfdf5;stroke:#059669;stroke-width:2}.o{fill:#fff7ed;stroke:#f97316;stroke-width:2}.line{stroke:#2563eb;stroke-width:3;fill:none;marker-end:url(#m)}</style><defs><marker id="m" markerWidth="10" markerHeight="10" refX="8" refY="5" orient="auto"><path d="M1 1 L9 5 L1 9 Z" fill="#2563eb"/></marker></defs><rect width="1000" height="850" fill="white"/><text x="500" y="55" text-anchor="middle" class="title">AI Testing Strategy Flow</text><rect x="320" y="100" width="360" height="60" rx="12" class="b"/><text x="500" y="138" text-anchor="middle" class="h">1 Define system context</text><path d="M500 160 V195" class="line"/><rect x="320" y="200" width="360" height="60" rx="12" class="o"/><text x="500" y="238" text-anchor="middle" class="h">2 Identify concerns</text><path d="M500 260 V295" class="line"/><rect x="320" y="300" width="360" height="60" rx="12" class="b"/><text x="500" y="338" text-anchor="middle" class="h">3 Map concern to layer</text><path d="M500 360 V395" class="line"/><rect x="320" y="400" width="360" height="60" rx="12" class="g"/><text x="500" y="438" text-anchor="middle" class="h">4 Select test level</text><path d="M500 460 V495" class="line"/><rect x="320" y="500" width="360" height="60" rx="12" class="g"/><text x="500" y="538" text-anchor="middle" class="h">5 Select test type</text><path d="M500 560 V595" class="line"/><rect x="320" y="600" width="360" height="60" rx="12" class="b"/><text x="500" y="638" text-anchor="middle" class="h">6 Define criteria and evidence</text><path d="M500 660 V695" class="line"/><rect x="320" y="700" width="360" height="60" rx="12" class="b"/><text x="500" y="738" text-anchor="middle" class="h">7 Monitor after deployment</text><rect x="60" y="305" width="210" height="190" rx="12" fill="#f8fafc" stroke="#cbd5e1" stroke-width="2"/><text x="165" y="340" text-anchor="middle" class="h">Layer examples</text><text x="85" y="375" class="t">Application</text><text x="85" y="405" class="t">Orchestration</text><text x="85" y="435" class="t">Model</text><text x="85" y="465" class="t">Data</text><rect x="730" y="305" width="210" height="190" rx="12" fill="#f8fafc" stroke="#cbd5e1" stroke-width="2"/><text x="835" y="340" text-anchor="middle" class="h">Test examples</text><text x="755" y="375" class="t">Data quality</text><text x="755" y="405" class="t">Model testing</text><text x="755" y="435" class="t">Integration</text><text x="755" y="465" class="t">Acceptance</text></svg>